<svg xmlns="http://www.w3.org/2000/svg" xmlns:xlink="http://www.w3.org/1999/xlink" xml:space="preserve" version="1.1" style="shape-rendering:geometricPrecision;text-rendering:geometricPrecision;image-rendering:optimizeQuality;" viewBox="0 0 380 452.01250000000005" x="0px" y="0px" fill-rule="evenodd" clip-rule="evenodd"><defs><style type="text/css">

    .fil0 {fill:black}

  </style></defs><g><path class="fil0" d="M192.13 1.52l44.46 129.6c0.62,1.83 2.25,3.01 4.18,3.04l137.01 2.23c2.14,0.03 3.03,2.77 1.32,4.04l-109.53 82.33c-1.54,1.16 -2.17,3.08 -1.6,4.92l40.21 130.99c0.63,2.04 -1.67,3.74 -3.44,2.5l-112.16 -78.72c-1.58,-1.11 -3.57,-1.11 -5.15,0l-112.16 78.72c-1.77,1.24 -4.07,-0.46 -3.44,-2.5l40.21 -130.99c0.57,-1.84 -0.06,-3.76 -1.6,-4.92l-109.53 -82.33c-1.71,-1.27 -0.82,-4.01 1.32,-4.04l137.01 -2.23c1.93,-0.03 3.56,-1.21 4.18,-3.04l44.46 -129.6c0.69,-2.01 3.56,-2.01 4.25,0z"/></g></svg>
